<svg version="1.1" id="Layer_1" xmlns="http://www.w3.org/2000/svg" xmlns:xlink="http://www.w3.org/1999/xlink" x="0px" y="0px"
	 width="100%" viewBox="0 0 692 684" enable-background="new 0 0 692 684" xml:space="preserve">
<path fill="#000000" opacity="1.000000" stroke="none" 
	d="
M385.000000,685.000000 
	C256.666656,685.000000 128.833328,685.000000 1.000000,685.000000 
	C1.000000,457.000000 1.000000,229.000000 1.000000,1.000000 
	C231.666672,1.000000 462.333344,1.000000 693.000000,1.000000 
	C693.000000,229.000000 693.000000,457.000000 693.000000,685.000000 
	C590.500000,685.000000 488.000000,685.000000 385.000000,685.000000 
M263.697784,434.499817 
	C263.697784,491.987579 263.683777,549.475342 263.707581,606.963135 
	C263.713593,621.493347 272.164215,629.919189 286.641876,629.924316 
	C324.133972,629.937561 361.626099,629.944092 399.118195,629.920776 
	C412.876190,629.912231 421.675293,621.252930 421.679352,607.495056 
	C421.713684,490.686340 421.713196,373.877594 421.679840,257.068878 
	C421.675995,243.619797 412.865021,234.945587 399.403107,234.936646 
	C361.411102,234.911407 323.419128,234.919052 285.427155,234.952728 
	C283.449493,234.954483 281.407623,235.066422 279.505432,235.554672 
	C269.355896,238.159775 263.707825,246.218735 263.704742,258.036713 
	C263.689453,316.524384 263.697784,375.012085 263.697784,434.499817 
M52.926250,182.453583 
	C51.370426,200.355225 63.278595,209.006622 78.832870,208.721191 
	C114.970161,208.058075 151.127914,208.522583 187.277374,208.504013 
	C202.665039,208.496109 210.993073,200.148727 210.997986,184.761154 
	C211.009659,148.111938 211.004578,111.462708 211.000427,74.813484 
	C210.998611,58.708164 202.840149,50.497280 186.808594,50.493053 
	C150.325958,50.483437 113.843323,50.485245 77.360687,50.492184 
	C60.887203,50.495316 52.938541,58.461124 52.931126,75.017509 
	C52.915237,110.500610 52.926250,145.983734 52.926250,182.453583 
M480.289154,202.203262 
	C484.930511,206.831314 490.593048,208.553940 497.062531,208.542908 
	C534.561218,208.479004 572.060120,208.538727 609.558960,208.497803 
	C623.707520,208.482361 632.260620,199.991760 632.284241,185.832031 
	C632.346680,148.333298 632.342224,110.834320 632.286987,73.335564 
	C632.265686,58.857334 623.782593,50.508461 609.221008,50.497562 
	C572.055481,50.469757 534.890015,50.475376 497.724487,50.494625 
	C482.720367,50.502396 474.298401,58.995739 474.295105,74.067673 
	C474.286926,111.233192 474.325592,148.398773 474.259186,185.564163 
	C474.248322,191.645508 475.738373,197.061340 480.289154,202.203262 
M401.844421,50.542717 
	C363.203125,50.525188 324.561768,50.460693 285.920563,50.515541 
	C272.344543,50.534809 263.744904,59.152969 263.715363,72.662750 
	C263.651672,101.810471 263.649170,130.958542 263.716370,160.106262 
	C263.747620,173.670624 272.346161,182.063019 286.012573,182.068481 
	C323.821533,182.083542 361.630463,182.083755 399.439423,182.068268 
	C412.834290,182.062775 421.646881,173.382278 421.679443,159.950562 
	C421.750031,130.802856 421.745819,101.654770 421.679443,72.507042 
	C421.652283,60.572243 414.464203,52.425652 401.844421,50.542717 
M548.500000,471.936920 
	C568.499573,471.936920 588.499207,471.940704 608.498779,471.935669 
	C624.005920,471.931793 632.263000,463.755219 632.271240,448.219543 
	C632.300293,393.554260 632.299683,338.888977 632.270996,284.223694 
	C632.263428,269.764221 623.806213,261.125580 609.398621,261.093140 
	C571.899780,261.008759 534.400452,261.012115 496.901581,261.090973 
	C482.995331,261.120209 474.275970,270.087036 474.272125,284.069153 
	C474.256989,339.067749 474.255310,394.066376 474.273346,449.064972 
	C474.277924,463.026276 483.098969,471.894806 497.001312,471.927490 
	C513.834106,471.967041 530.667114,471.936890 548.500000,471.936920 
M141.500000,629.931702 
	C156.999847,629.931702 172.499725,629.944641 187.999557,629.927917 
	C202.305206,629.912537 210.987366,621.244690 210.992767,606.880432 
	C211.013412,552.047363 211.014740,497.214264 210.991898,442.381165 
	C210.985794,427.742371 202.319244,419.161865 187.654190,419.159393 
	C150.654358,419.153107 113.654510,419.153717 76.654671,419.158966 
	C61.499424,419.161133 52.962818,427.460144 52.949936,442.479034 
	C52.902901,497.312073 52.903999,552.145203 52.949081,606.978271 
	C52.960983,621.456360 61.535629,629.910645 76.000290,629.925781 
	C97.500175,629.948303 119.000092,629.931641 141.500000,629.931702 
M474.271057,578.499939 
	C474.271057,587.996887 474.254486,597.493896 474.274872,606.990784 
	C474.305542,621.261902 483.027374,629.930542 497.379608,629.934692 
	C534.534363,629.945496 571.689087,629.941223 608.843811,629.936829 
	C623.952759,629.935059 632.245911,621.668030 632.287048,606.429626 
	C632.340027,586.769470 632.343201,567.108826 632.285339,547.448669 
	C632.243774,533.311584 624.300964,524.629333 610.292297,524.539551 
	C572.139587,524.295044 533.983154,524.293274 495.830658,524.556274 
	C482.596527,524.647583 474.344055,533.733704 474.280701,547.009705 
	C474.232208,557.172852 474.271118,567.336487 474.271057,578.499939 
M186.347351,261.066040 
	C149.699966,261.066193 113.052521,261.034027 76.405197,261.082275 
	C61.607079,261.101746 53.009766,269.579590 52.954979,284.194214 
	C52.880669,304.016846 52.880886,323.840149 52.954361,343.662781 
	C53.008057,358.149445 61.430828,366.368439 76.066750,366.373535 
	C113.380440,366.386536 150.694122,366.388062 188.007812,366.372711 
	C202.508484,366.366760 210.972122,357.940216 210.994247,343.474396 
	C211.024048,323.984680 211.014893,304.494934 210.997513,285.005188 
	C210.983826,269.651062 202.751236,261.353699 186.347351,261.066040 
z"/>
<path fill="#FEFEFE" opacity="1.000000" stroke="none" 
	d="
M263.697784,433.999786 
	C263.697784,375.012085 263.689453,316.524384 263.704742,258.036713 
	C263.707825,246.218735 269.355896,238.159775 279.505432,235.554672 
	C281.407623,235.066422 283.449493,234.954483 285.427155,234.952728 
	C323.419128,234.919052 361.411102,234.911407 399.403107,234.936646 
	C412.865021,234.945587 421.675995,243.619797 421.679840,257.068878 
	C421.713196,373.877594 421.713684,490.686340 421.679352,607.495056 
	C421.675293,621.252930 412.876190,629.912231 399.118195,629.920776 
	C361.626099,629.944092 324.133972,629.937561 286.641876,629.924316 
	C272.164215,629.919189 263.713593,621.493347 263.707581,606.963135 
	C263.683777,549.475342 263.697784,491.987579 263.697784,433.999786 
z"/>
<path fill="#FEFEFE" opacity="1.000000" stroke="none" 
	d="
M52.926250,181.960205 
	C52.926250,145.983734 52.915237,110.500610 52.931126,75.017509 
	C52.938541,58.461124 60.887203,50.495316 77.360687,50.492184 
	C113.843323,50.485245 150.325958,50.483437 186.808594,50.493053 
	C202.840149,50.497280 210.998611,58.708164 211.000427,74.813484 
	C211.004578,111.462708 211.009659,148.111938 210.997986,184.761154 
	C210.993073,200.148727 202.665039,208.496109 187.277374,208.504013 
	C151.127914,208.522583 114.970161,208.058075 78.832870,208.721191 
	C63.278595,209.006622 51.370426,200.355225 52.926250,181.960205 
z"/>
<path fill="#FDFDFD" opacity="1.000000" stroke="none" 
	d="
M480.048645,201.933258 
	C475.738373,197.061340 474.248322,191.645508 474.259186,185.564163 
	C474.325592,148.398773 474.286926,111.233192 474.295105,74.067673 
	C474.298401,58.995739 482.720367,50.502396 497.724487,50.494625 
	C534.890015,50.475376 572.055481,50.469757 609.221008,50.497562 
	C623.782593,50.508461 632.265686,58.857334 632.286987,73.335564 
	C632.342224,110.834320 632.346680,148.333298 632.284241,185.832031 
	C632.260620,199.991760 623.707520,208.482361 609.558960,208.497803 
	C572.060120,208.538727 534.561218,208.479004 497.062531,208.542908 
	C490.593048,208.553940 484.930511,206.831314 480.048645,201.933258 
z"/>
<path fill="#FEFEFE" opacity="1.000000" stroke="none" 
	d="
M402.276306,50.595661 
	C414.464203,52.425652 421.652283,60.572243 421.679443,72.507042 
	C421.745819,101.654770 421.750031,130.802856 421.679443,159.950562 
	C421.646881,173.382278 412.834290,182.062775 399.439423,182.068268 
	C361.630463,182.083755 323.821533,182.083542 286.012573,182.068481 
	C272.346161,182.063019 263.747620,173.670624 263.716370,160.106262 
	C263.649170,130.958542 263.651672,101.810471 263.715363,72.662750 
	C263.744904,59.152969 272.344543,50.534809 285.920563,50.515541 
	C324.561768,50.460693 363.203125,50.525188 402.276306,50.595661 
z"/>
<path fill="#6588CE" opacity="1.000000" stroke="none" 
	d="
M548.000000,471.936920 
	C530.667114,471.936890 513.834106,471.967041 497.001312,471.927490 
	C483.098969,471.894806 474.277924,463.026276 474.273346,449.064972 
	C474.255310,394.066376 474.256989,339.067749 474.272125,284.069153 
	C474.275970,270.087036 482.995331,261.120209 496.901581,261.090973 
	C534.400452,261.012115 571.899780,261.008759 609.398621,261.093140 
	C623.806213,261.125580 632.263428,269.764221 632.270996,284.223694 
	C632.299683,338.888977 632.300293,393.554260 632.271240,448.219543 
	C632.263000,463.755219 624.005920,471.931793 608.498779,471.935669 
	C588.499207,471.940704 568.499573,471.936920 548.000000,471.936920 
M492.255157,283.170013 
	C492.235809,337.820282 492.216370,392.470520 492.197906,447.120789 
	C492.197693,447.787170 492.186554,448.454803 492.221130,449.119720 
	C492.385071,452.271698 493.761200,453.916718 497.210938,453.911072 
	C534.533264,453.850067 571.855835,453.855469 609.178223,453.899994 
	C612.777405,453.904266 614.163696,452.461334 614.158997,448.800537 
	C614.087891,393.983276 614.089539,339.165833 614.156799,284.348572 
	C614.161133,280.791046 612.964111,279.104309 609.293945,279.107727 
	C571.971497,279.142334 534.648865,279.087250 497.327240,279.261414 
	C495.686066,279.269043 494.054077,281.246460 492.255157,283.170013 
z"/>
<path fill="#84BC80" opacity="1.000000" stroke="none" 
	d="
M141.000000,629.931641 
	C119.000092,629.931641 97.500175,629.948303 76.000290,629.925781 
	C61.535629,629.910645 52.960983,621.456360 52.949081,606.978271 
	C52.903999,552.145203 52.902901,497.312073 52.949936,442.479034 
	C52.962818,427.460144 61.499424,419.161133 76.654671,419.158966 
	C113.654510,419.153717 150.654358,419.153107 187.654190,419.159393 
	C202.319244,419.161865 210.985794,427.742371 210.991898,442.381165 
	C211.014740,497.214264 211.013412,552.047363 210.992767,606.880432 
	C210.987366,621.244690 202.305206,629.912537 187.999557,629.927917 
	C172.499725,629.944641 156.999847,629.931702 141.000000,629.931641 
M192.945038,447.591919 
	C192.945053,437.116516 192.945053,437.116516 182.221893,437.116516 
	C147.566940,437.116516 112.911995,437.113190 78.257042,437.119324 
	C71.338753,437.120544 71.003654,437.470673 71.003296,444.543213 
	C71.000580,497.858521 71.000664,551.173828 71.003181,604.489136 
	C71.003525,611.716431 71.160370,611.880615 78.217674,611.881470 
	C114.038902,611.885925 149.860123,611.886047 185.681351,611.881409 
	C192.730408,611.880493 192.943054,611.662292 192.943466,604.516724 
	C192.946442,552.534302 192.945007,500.551849 192.945038,447.591919 
z"/>
<path fill="#E9B452" opacity="1.000000" stroke="none" 
	d="
M474.271118,577.999878 
	C474.271118,567.336487 474.232208,557.172852 474.280701,547.009705 
	C474.344055,533.733704 482.596527,524.647583 495.830658,524.556274 
	C533.983154,524.293274 572.139587,524.295044 610.292297,524.539551 
	C624.300964,524.629333 632.243774,533.311584 632.285339,547.448669 
	C632.343201,567.108826 632.340027,586.769470 632.287048,606.429626 
	C632.245911,621.668030 623.952759,629.935059 608.843811,629.936829 
	C571.689087,629.941223 534.534363,629.945496 497.379608,629.934692 
	C483.027374,629.930542 474.305542,621.261902 474.274872,606.990784 
	C474.254486,597.493896 474.271057,587.996887 474.271118,577.999878 
M559.500000,611.858398 
	C575.656128,611.858398 591.813965,611.727356 607.967346,611.938538 
	C612.784302,612.001587 614.283569,610.363708 614.219788,605.541321 
	C613.973145,586.890137 614.124695,568.233704 614.116821,549.579224 
	C614.113953,542.826599 614.099670,542.804688 607.557861,542.803345 
	C571.414795,542.795776 535.271729,542.797180 499.128693,542.801880 
	C492.565826,542.802734 492.241638,543.109375 492.232483,549.987732 
	C492.208160,568.309082 492.208801,586.630493 492.232727,604.951843 
	C492.240875,611.216370 492.893280,611.851807 499.038849,611.854858 
	C518.859253,611.864563 538.679626,611.858337 559.500000,611.858398 
z"/>
<path fill="#C9534A" opacity="1.000000" stroke="none" 
	d="
M186.822647,261.066132 
	C202.751236,261.353699 210.983826,269.651062 210.997513,285.005188 
	C211.014893,304.494934 211.024048,323.984680 210.994247,343.474396 
	C210.972122,357.940216 202.508484,366.366760 188.007812,366.372711 
	C150.694122,366.388062 113.380440,366.386536 76.066750,366.373535 
	C61.430828,366.368439 53.008057,358.149445 52.954361,343.662781 
	C52.880886,323.840149 52.880669,304.016846 52.954979,284.194214 
	C53.009766,269.579590 61.607079,261.101746 76.405197,261.082275 
	C113.052521,261.034027 149.699966,261.066193 186.822647,261.066132 
M93.500298,279.082855 
	C88.170143,279.082886 82.839867,279.059418 77.509880,279.089233 
	C71.693016,279.121796 71.012268,279.817657 71.007660,285.812500 
	C70.993179,304.634644 71.135452,323.458405 70.909019,342.277832 
	C70.852211,346.999664 72.527397,348.222809 77.020515,348.205261 
	C113.664864,348.061981 150.310272,348.059814 186.954575,348.208099 
	C191.479935,348.226410 193.107956,346.949799 193.051941,342.260620 
	C192.831070,323.774231 192.963928,305.283630 192.960236,286.794617 
	C192.958755,279.371521 192.683807,279.085602 185.446167,279.084625 
	C155.130844,279.080475 124.815514,279.082977 93.500298,279.082855 
z"/>
<path fill="#1A2C50" opacity="1.000000" stroke="none" 
	d="
M492.336487,282.738159 
	C494.054077,281.246460 495.686066,279.269043 497.327240,279.261414 
	C534.648865,279.087250 571.971497,279.142334 609.293945,279.107727 
	C612.964111,279.104309 614.161133,280.791046 614.156799,284.348572 
	C614.089539,339.165833 614.087891,393.983276 614.158997,448.800537 
	C614.163696,452.461334 612.777405,453.904266 609.178223,453.899994 
	C571.855835,453.855469 534.533264,453.850067 497.210938,453.911072 
	C493.761200,453.916718 492.385071,452.271698 492.221130,449.119720 
	C492.186554,448.454803 492.197693,447.787170 492.197906,447.120789 
	C492.216370,392.470520 492.235809,337.820282 492.336487,282.738159 
z"/>
<path fill="#2A4527" opacity="1.000000" stroke="none" 
	d="
M192.945007,448.080688 
	C192.945007,500.551849 192.946442,552.534302 192.943466,604.516724 
	C192.943054,611.662292 192.730408,611.880493 185.681351,611.881409 
	C149.860123,611.886047 114.038902,611.885925 78.217674,611.881470 
	C71.160370,611.880615 71.003525,611.716431 71.003181,604.489136 
	C71.000664,551.173828 71.000580,497.858521 71.003296,444.543213 
	C71.003654,437.470673 71.338753,437.120544 78.257042,437.119324 
	C112.911995,437.113190 147.566940,437.116516 182.221893,437.116516 
	C192.945053,437.116516 192.945053,437.116516 192.945007,448.080688 
z"/>
<path fill="#5E4314" opacity="1.000000" stroke="none" 
	d="
M559.000000,611.858276 
	C538.679626,611.858337 518.859253,611.864563 499.038849,611.854858 
	C492.893280,611.851807 492.240875,611.216370 492.232727,604.951843 
	C492.208801,586.630493 492.208160,568.309082 492.232483,549.987732 
	C492.241638,543.109375 492.565826,542.802734 499.128693,542.801880 
	C535.271729,542.797180 571.414795,542.795776 607.557861,542.803345 
	C614.099670,542.804688 614.113953,542.826599 614.116821,549.579224 
	C614.124695,568.233704 613.973145,586.890137 614.219788,605.541321 
	C614.283569,610.363708 612.784302,612.001587 607.967346,611.938538 
	C591.813965,611.727356 575.656128,611.858398 559.000000,611.858276 
z"/>
<path fill="#5E1E18" opacity="1.000000" stroke="none" 
	d="
M94.000244,279.082947 
	C124.815514,279.082977 155.130844,279.080475 185.446167,279.084625 
	C192.683807,279.085602 192.958755,279.371521 192.960236,286.794617 
	C192.963928,305.283630 192.831070,323.774231 193.051941,342.260620 
	C193.107956,346.949799 191.479935,348.226410 186.954575,348.208099 
	C150.310272,348.059814 113.664864,348.061981 77.020515,348.205261 
	C72.527397,348.222809 70.852211,346.999664 70.909019,342.277832 
	C71.135452,323.458405 70.993179,304.634644 71.007660,285.812500 
	C71.012268,279.817657 71.693016,279.121796 77.509880,279.089233 
	C82.839867,279.059418 88.170143,279.082886 94.000244,279.082947 
z"/>
</svg>